<svg width="30" height="30" viewBox="0 0 30 30" fill="none" xmlns="http://www.w3.org/2000/svg">
<path d="M27.25 0.625H2.74378C1.57503 0.625 0.625031 1.55 0.625031 2.7V27.3C0.625031 28.4438 1.57503 29.375 2.74378 29.375H27.2438C28.4188 29.375 29.3688 28.4438 29.3688 27.3V2.7C29.375 1.55 28.4188 0.625 27.25 0.625ZM9.15628 25.125H4.88753V11.4H9.15628V25.125ZM7.01878 9.525C5.65003 9.525 4.54378 8.41875 4.54378 7.05C4.54378 5.6875 5.65003 4.575 7.01878 4.575C8.38128 4.575 9.48753 5.68125 9.48753 7.05C9.49378 8.41875 8.38753 9.525 7.01878 9.525ZM25.125 25.125H20.8625V18.45C20.8625 16.8563 20.8375 14.8125 18.65 14.8125C16.4313 14.8125 16.0938 16.5438 16.0938 18.3375V25.125H11.8375V11.4H15.925V13.275H15.9813C16.55 12.1938 17.9438 11.0563 20.0188 11.0563C24.3375 11.0563 25.1313 13.9 25.1313 17.5938V25.125H25.125Z" fill="white"/>
</svg>
