<svg width="30" height="30" viewBox="0 0 30 30" fill="none" xmlns="http://www.w3.org/2000/svg">
<path fill-rule="evenodd" clip-rule="evenodd" d="M29.9945 5.39207C28.8888 5.88148 27.7069 6.21199 26.4614 6.36453C27.7323 5.60182 28.7109 4.39419 29.1684 2.95775C27.9801 3.66326 26.6647 4.17809 25.2603 4.45139C24.1356 3.25012 22.5342 2.50012 20.7676 2.50012C17.3679 2.50012 14.6163 5.2586 14.6163 8.65902C14.6163 9.14207 14.6672 9.61241 14.7752 10.0637C9.65971 9.80944 5.12251 7.35605 2.09135 3.62512C1.56392 4.53402 1.25889 5.59546 1.25889 6.72046C1.25889 8.85605 2.35189 10.7438 4.00409 11.8497C2.98735 11.8243 2.03416 11.5446 1.20806 11.0806C1.20806 11.1061 1.20806 11.1315 1.20806 11.1569C1.20806 14.1442 3.3305 16.6294 6.1456 17.195C5.63088 17.3349 5.08438 17.4111 4.52517 17.4111C4.13119 17.4111 3.74355 17.373 3.36863 17.2967C4.15025 19.7438 6.42521 21.5234 9.11957 21.5743C7.01619 23.2268 4.35995 24.212 1.47495 24.212C0.979289 24.212 0.489982 24.1802 0.00703049 24.123C2.72046 25.8899 5.95496 26.9069 9.42459 26.9069C20.7549 26.9069 26.9443 17.5192 26.9443 9.37724C26.9443 9.11029 26.938 8.84334 26.9252 8.58275C28.1263 7.71199 29.1684 6.63148 29.9945 5.39207Z" fill="white"/>
<mask id="mask0" mask-type="alpha" maskUnits="userSpaceOnUse" x="0" y="2" width="30" height="25">
<path fill-rule="evenodd" clip-rule="evenodd" d="M29.9945 5.39207C28.8888 5.88148 27.7069 6.21199 26.4614 6.36453C27.7323 5.60182 28.7109 4.39419 29.1684 2.95775C27.9801 3.66326 26.6647 4.17809 25.2603 4.45139C24.1356 3.25012 22.5342 2.50012 20.7676 2.50012C17.3679 2.50012 14.6163 5.2586 14.6163 8.65902C14.6163 9.14207 14.6672 9.61241 14.7752 10.0637C9.65971 9.80944 5.12251 7.35605 2.09135 3.62512C1.56392 4.53402 1.25889 5.59546 1.25889 6.72046C1.25889 8.85605 2.35189 10.7438 4.00409 11.8497C2.98735 11.8243 2.03416 11.5446 1.20806 11.0806C1.20806 11.1061 1.20806 11.1315 1.20806 11.1569C1.20806 14.1442 3.3305 16.6294 6.1456 17.195C5.63088 17.3349 5.08438 17.4111 4.52517 17.4111C4.13119 17.4111 3.74355 17.373 3.36863 17.2967C4.15025 19.7438 6.42521 21.5234 9.11957 21.5743C7.01619 23.2268 4.35995 24.212 1.47495 24.212C0.979289 24.212 0.489982 24.1802 0.00703049 24.123C2.72046 25.8899 5.95496 26.9069 9.42459 26.9069C20.7549 26.9069 26.9443 17.5192 26.9443 9.37724C26.9443 9.11029 26.938 8.84334 26.9252 8.58275C28.1263 7.71199 29.1684 6.63148 29.9945 5.39207Z" fill="white"/>
</mask>
<g mask="url(#mask0)">
<rect width="30" height="30" fill="white"/>
</g>
</svg>
